<mxfile host="app.diagrams.net" modified="2024-02-04T09:19:05.513Z" agent="Mozilla/5.0 (Macintosh; Intel Mac OS X 10_15_7) AppleWebKit/537.36 (KHTML, like Gecko) Chrome/120.0.0.0 Safari/537.36" version="22.1.18" etag="l51ZDdNxw_FQ2Zetw89q" type="github">
  <diagram name="第 1 页" id="SgpHD9AGzA8dNbp--QLy">
    <mxGraphModel>
      <root>
        <mxCell id="0" />
        <mxCell id="1" parent="0" />
      </root>
    </mxGraphModel>
  </diagram>
</mxfile>
